<svg width="41" height="41" viewBox="0 0 41 41" fill="none" xmlns="http://www.w3.org/2000/svg">
<g clip-path="url(#clip0_38_139)">
<path d="M31.7422 0H9.25783C4.14487 0 0 4.16407 0 9.3007V31.6993C0 36.8359 4.14487 41 9.25783 41H31.7422C36.8551 41 41 36.8359 41 31.6993V9.3007C41 4.16407 36.8551 0 31.7422 0Z" fill="white"/>
<path fill-rule="evenodd" clip-rule="evenodd" d="M16.4139 15.8921H21.5941V18.5598H21.6694C22.3909 17.2597 24.155 15.8921 26.7856 15.8921C32.2557 15.8921 33.2671 19.312 33.2671 23.7608V33.1669H27.865L27.8642 24.7897C27.8642 22.8742 27.825 20.4093 25.0551 20.4093C22.2428 20.4093 21.8111 22.4937 21.8111 24.6505V33.1669H16.4139V15.8921ZM13.3525 10.6556C13.3525 12.2131 12.0937 13.4778 10.5433 13.4778C8.99223 13.4778 7.7334 12.2131 7.7334 10.6556C7.7334 9.09735 8.99223 7.8335 10.5433 7.8335C12.0937 7.8335 13.3525 9.09735 13.3525 10.6556ZM7.7334 15.8921H13.3525V33.1669H7.7334V15.8921Z" fill="#1B1A17"/>
</g>
<defs>
<clipPath id="clip0_38_139">
<rect width="41" height="41" fill="white"/>
</clipPath>
</defs>
</svg>
